<svg viewBox="0 0 100 100" xmlns="http://www.w3.org/2000/svg" xml:space="preserve" style="fill-rule:evenodd;clip-rule:evenodd;stroke-linecap:round;stroke-linejoin:round;stroke-miterlimit:1.5"><path d="M95.236 24.222v48.443c0 13.368-10.668 24.222-23.809 24.222H23.809C10.668 96.887 0 86.033 0 72.665V24.222C0 10.853 10.668 0 23.809 0h47.618c13.141 0 23.809 10.853 23.809 24.222z" style="fill:url(#a)" transform="scale(1.05002 1.03213)"/><circle cx="55.475" cy="59.874" r="34.138" style="fill:none;stroke:#fff;stroke-width:5.27px" transform="matrix(1.13182 0 0 1.14599 -12.787 -18.614)"/><path d="m57.02 54.18-2.051-5.39H37.508l-2.051 5.508c-.801 2.148-1.484 3.598-2.051 4.35-.566.752-1.494 1.128-2.783 1.128-1.094 0-2.06-.4-2.9-1.201-.84-.801-1.26-1.709-1.26-2.725 0-.586.098-1.191.293-1.816.195-.625.518-1.494.967-2.607l10.986-27.891 1.128-2.886c.44-1.123.908-2.055 1.406-2.798a5.718 5.718 0 0 1 1.963-1.801c.811-.459 1.812-.689 3.003-.689 1.211 0 2.222.23 3.032.689a5.82 5.82 0 0 1 1.963 1.772 12.46 12.46 0 0 1 1.26 2.329c.342.83.776 1.939 1.304 3.325l11.22 27.715c.879 2.11 1.319 3.643 1.319 4.6 0 .996-.415 1.909-1.245 2.739-.83.83-1.831 1.245-3.003 1.245-.684 0-1.27-.122-1.758-.366a3.598 3.598 0 0 1-1.23-.996c-.333-.42-.689-1.065-1.07-1.934-.381-.869-.708-1.635-.981-2.3zM39.793 42.257h12.832l-6.474-17.725-6.358 17.725z" style="fill:#fff;fill-rule:nonzero" transform="translate(3.615 8.935)"/><defs><linearGradient id="a" x1="0" y1="0" x2="1" y2="0" gradientUnits="userSpaceOnUse" gradientTransform="matrix(0 77.3183 -76.0013 0 47.618 6.747)"><stop offset="0" style="stop-color:#7ea6e0;stop-opacity:1"/><stop offset="1" style="stop-color:#0770a7;stop-opacity:1"/></linearGradient></defs></svg>